<?xml version="1.0" encoding="UTF-8"?>
<svg xmlns="http://www.w3.org/2000/svg" width="714" height="1024" viewBox="0 0 714 1024">
<g fill="black" stroke="none">
<path d="M 41 60 L 42 866 L 162 873 L 154 850 L 174 836 L 196 862 L 187 882 L 335 972 L 531 972 L 551 961 L 539 945 L 602 972 L 665 971 L 671 634 L 619 627 L 602 649 L 581 633 L 555 650 L 522 649 L 501 629 L 498 585 L 457 594 L 417 544 L 456 543 L 452 562 L 467 576 L 486 545 L 530 520 L 538 535 L 591 536 L 622 577 L 664 570 L 646 540 L 640 479 L 609 439 L 616 411 L 640 418 L 653 406 L 636 355 L 610 336 L 616 259 L 547 188 L 623 207 L 648 239 L 664 231 L 671 52 L 517 52 L 526 69 L 610 95 L 598 122 L 577 100 L 550 101 L 535 137 L 521 97 L 478 54 L 441 59 L 408 102 L 407 68 L 366 79 L 349 51 Z"/>
</g>
</svg>