<?xml version="1.0" encoding="UTF-8"?>
<svg xmlns="http://www.w3.org/2000/svg" width="1200" height="892" viewBox="0 0 1200 892">
  <g fill="black" stroke="none">
    <path d="M 36 35 L 47 155 L 38 218 L 45 251 L 60 254 L 56 358 L 45 363 L 41 395 L 62 712 L 72 726 L 62 739 L 64 823 L 139 836 L 164 824 L 418 837 L 430 790 L 451 794 L 464 771 L 486 777 L 490 763 L 513 782 L 524 740 L 556 724 L 577 725 L 595 709 L 609 680 L 574 645 L 579 614 L 590 604 L 629 608 L 660 594 L 691 617 L 678 587 L 688 580 L 681 561 L 706 552 L 708 518 L 688 488 L 666 478 L 660 435 L 627 386 L 652 361 L 676 288 L 673 269 L 698 228 L 658 200 L 626 104 L 592 103 L 585 77 L 399 75 L 382 33 Z"/>
    <path d="M 299 821 L 300 820 L 304 820 L 305 821 L 305 825 L 304 826 L 300 826 L 299 825 Z"/>
  </g>
</svg>
